<svg xmlns="http://www.w3.org/2000/svg" width="171" height="40" viewBox="0 0 171 40">
    <g fill="#FFF" fill-rule="evenodd">
        <path fill-rule="nonzero" d="M66.753 13.553v16.463c0 .34-.112.623-.335.846-.224.224-.517.336-.879.336-.34 0-.617-.112-.83-.336-.213-.223-.32-.505-.32-.846V10.121c0-.383.123-.691.368-.926.245-.234.538-.35.878-.35.192 0 .389.036.591.11.202.075.357.187.463.336l13.06 17.27V10.026c0-.341.113-.623.336-.847.224-.223.506-.335.846-.335.362 0 .65.112.863.335.212.224.319.506.319.847v19.83c0 .405-.128.73-.383.974-.256.245-.565.368-.926.368-.192 0-.384-.038-.575-.112-.192-.075-.34-.176-.447-.304l-13.03-17.23zm36.851 1.135c.383 0 .692.122.926.367.234.245.351.548.351.91v8.718c0 2.15-.601 3.816-1.804 4.998-1.203 1.181-2.88 1.772-5.03 1.772-2.128 0-3.794-.59-4.997-1.772-1.203-1.182-1.804-2.848-1.804-4.998v-8.718c0-.362.122-.665.367-.91s.548-.367.91-.367c.383 0 .692.122.926.367.234.245.351.548.351.91v8.718c0 1.448.373 2.544 1.118 3.29.745.744 1.788 1.117 3.13 1.117 1.383 0 2.443-.373 3.177-1.118.734-.745 1.102-1.841 1.102-3.289v-8.718c0-.362.122-.665.367-.91s.548-.367.91-.367zm17.18-.415c1.086 0 2.065.117 2.938.351.873.234 1.565.554 2.076.958.51.405.766.862.766 1.373 0 .277-.09.543-.271.799-.181.255-.442.383-.783.383-.276 0-.505-.053-.686-.16-.136-.08-.266-.178-.39-.293l-.121-.122c-.16-.17-.378-.32-.655-.447-.255-.15-.628-.266-1.117-.351-.49-.086-.99-.128-1.501-.128-1.15 0-2.172.277-3.066.83-.894.554-1.591 1.299-2.092 2.235-.5.937-.75 2.002-.75 3.194 0 1.192.245 2.256.734 3.193.49.937 1.171 1.682 2.044 2.235.873.554 1.884.83 3.034.83.745 0 1.336-.063 1.772-.19.437-.129.815-.278 1.134-.448.362-.213.644-.426.846-.639.202-.212.484-.319.846-.319s.639.117.83.351c.192.235.288.522.288.863 0 .383-.266.787-.798 1.213-.533.426-1.251.788-2.156 1.086-.905.298-1.921.447-3.05.447-1.617 0-3.033-.378-4.247-1.134-1.213-.756-2.155-1.788-2.826-3.097-.67-1.31-1.006-2.773-1.006-4.391 0-1.618.346-3.076 1.038-4.375.692-1.299 1.655-2.331 2.89-3.098 1.235-.766 2.661-1.15 4.28-1.15zm16.03 15.615c0 .362-.127.67-.382.926-.256.256-.565.384-.926.384-.362 0-.66-.128-.895-.384-.234-.255-.35-.564-.35-.926V8.844c0-.362.122-.665.366-.91.245-.245.549-.367.91-.367.384 0 .692.122.927.367.234.245.35.548.35.91v21.044zm10.203-8.75h10.044v-.255c-.064-.873-.346-1.623-.847-2.251-.5-.628-1.112-1.113-1.836-1.453-.724-.34-1.48-.511-2.267-.511-.639 0-1.272.112-1.9.335-.628.224-1.192.586-1.693 1.086-.5.5-.899 1.144-1.197 1.932-.097.257-.179.53-.244.821l-.06.296zm-.13 2.204c.057 1.038.303 1.964.737 2.778.5.937 1.198 1.677 2.092 2.22.894.542 1.927.814 3.097.814.767 0 1.427-.096 1.98-.288.554-.191 1.028-.43 1.421-.718.394-.288.73-.58 1.006-.878.277-.192.554-.288.83-.288.299 0 .554.107.767.32.213.213.32.468.32.766 0 .362-.171.681-.512.958-.617.66-1.431 1.24-2.443 1.74-1.01.5-2.102.75-3.273.75-1.703 0-3.193-.361-4.47-1.085-1.278-.724-2.268-1.719-2.97-2.986-.703-1.266-1.054-2.73-1.054-4.39 0-1.853.367-3.433 1.102-4.743.734-1.309 1.687-2.31 2.858-3.001 1.17-.692 2.416-1.038 3.736-1.038 1 0 1.953.18 2.858.543.905.362 1.714.888 2.427 1.58.713.692 1.283 1.523 1.708 2.491.426.969.65 2.05.671 3.241-.021.341-.16.628-.415.863-.256.234-.554.35-.894.35h-11.58zm23.01 6.546c0 .362-.122.67-.366.926-.245.256-.549.384-.91.384-.384 0-.692-.128-.927-.384-.234-.255-.35-.564-.35-.926V15.71c0-.362.122-.665.366-.91.245-.245.549-.368.91-.368.362 0 .666.123.91.368.245.245.368.548.368.91v14.178zm-1.276-17.595c-.533 0-.927-.107-1.182-.32-.255-.212-.383-.542-.383-.99v-.446c0-.448.138-.777.415-.99.277-.213.67-.32 1.181-.32s.895.107 1.15.32c.256.213.383.542.383.99v.447c0 .447-.133.777-.399.99-.266.212-.655.319-1.165.319z"/>
        <g>
            <path fill-rule="nonzero" d="M40.36.702C39.307.26 38.217.055 37.126.055c-2.143 0-4.213.85-5.82 2.458l-1.128 1.128c-.5.517-.518 1.423 0 1.958.536.536 1.423.536 1.959 0l1.145-1.145c1.922-1.922 4.38-1.885 6.025-1.202 1.645.684 3.419 2.384 3.419 5.101v22.453c0 2.717-1.756 4.417-3.419 5.1-.628.26-1.386.426-2.162.426-1.275 0-2.661-.444-3.863-1.627l-4.49-4.49c-1.017-1.017-1.017-2.68 0-3.696l1.515-1.516c1.774-1.774 1.774-4.638 0-6.412L14.193 2.476C11.772.056 8.316-.628 5.156.684 1.996 1.996.037 4.934.037 8.353v22.453c0 3.419 1.959 6.357 5.119 7.67 1.053.443 2.144.646 3.234.646 2.144 0 4.213-.85 5.821-2.458l1.146-1.145c.536-.536.536-1.423 0-1.96-.536-.535-1.423-.535-1.959 0l-1.146 1.146c-1.922 1.922-4.38 1.885-6.024 1.202-1.645-.684-3.419-2.384-3.419-5.1V8.352c0-2.717 1.756-4.417 3.419-5.1.628-.26 1.386-.426 2.162-.426 1.275 0 2.661.444 3.862 1.627l4.49 4.49c1.017 1.017 1.017 2.68 0 3.696l-1.385 1.386c-1.848 1.848-1.848 4.824 0 6.672l9.646 9.646 6.34 6.339c2.42 2.42 5.876 3.104 9.036 1.792 3.16-1.312 5.119-4.25 5.119-7.669V8.353c-.019-3.419-1.978-6.357-5.138-7.65zM22.75 20.975c-.758 0-1.386-.629-1.386-1.386 0-.758.628-1.386 1.386-1.386.758 0 1.386.628 1.386 1.386 0 .757-.628 1.386-1.386 1.386z"/>
            <circle cx="28.035" cy="7.724" r="1.386" transform="rotate(-4.065 28.035 7.724)"/>
            <path d="M17.464 30.067c-.758 0-1.386.628-1.386 1.386 0 .758.628 1.386 1.386 1.386.757 0 1.386-.628 1.386-1.386 0-.776-.61-1.386-1.386-1.386z"/>
        </g>
    </g>
</svg>
